<?xml version="1.0" standalone="no"?>
<!DOCTYPE svg PUBLIC "-//W3C//DTD SVG 20010904//EN"
 "http://www.w3.org/TR/2001/REC-SVG-20010904/DTD/svg10.dtd">
<svg version="1.0" xmlns="http://www.w3.org/2000/svg"
 width="2401.000000pt" height="2401.000000pt" viewBox="0 0 2401.000000 2401.000000"
 preserveAspectRatio="xMidYMid meet">
<metadata>
Created by potrace 1.14, written by Peter Selinger 2001-2017
</metadata>
<g transform="translate(0.000000,2401.000000) scale(0.100000,-0.100000)"
fill="#000000" stroke="none">
<path d="M16245 21648 c-143 -19 -192 -32 -295 -84 -145 -73 -259 -162 -440
-343 -164 -165 -244 -269 -318 -417 -152 -303 -213 -731 -161 -1129 l10 -80
-86 -190 c-106 -233 -250 -565 -357 -825 -44 -107 -82 -197 -85 -200 -3 -3 -2
27 2 65 8 86 -10 442 -30 597 -54 412 -167 794 -327 1113 -73 145 -170 255
-265 302 -78 38 -184 40 -255 5 -139 -69 -259 -239 -338 -481 -34 -105 -95
-411 -105 -526 -16 -197 43 -552 145 -865 140 -430 464 -698 888 -735 71 -7
82 -10 76 -24 -62 -152 -373 -1063 -419 -1229 -10 -34 -19 -61 -21 -59 -2 2
-22 66 -45 143 -62 214 -131 391 -234 599 -181 368 -413 690 -579 804 -156
108 -317 98 -425 -25 -120 -136 -166 -360 -149 -711 15 -285 62 -465 193 -731
173 -354 316 -534 516 -653 128 -77 324 -126 467 -117 l59 3 -24 -85 c-68
-245 -232 -926 -283 -1173 l-12 -59 -80 148 c-254 469 -518 828 -839 1139
-235 228 -369 320 -500 346 -117 23 -226 -40 -266 -154 -25 -73 -25 -291 1
-402 38 -165 130 -420 219 -609 114 -243 450 -663 654 -819 79 -60 189 -119
278 -149 95 -31 290 -32 378 -1 31 11 57 18 57 14 0 -3 -18 -105 -39 -226 -46
-258 -100 -605 -135 -865 -29 -218 -76 -607 -76 -635 0 -11 -26 30 -58 90
-160 306 -372 622 -581 870 -171 201 -420 439 -561 535 -184 125 -351 124
-437 -3 -73 -109 -72 -325 3 -592 40 -139 169 -459 229 -565 155 -275 474
-646 665 -772 96 -64 204 -110 298 -129 92 -18 231 -7 321 24 l74 26 -7 -72
c-38 -429 -59 -1006 -60 -1613 l-1 -551 -45 79 c-120 208 -325 440 -513 580
-177 131 -446 273 -597 314 -91 25 -238 25 -310 0 -77 -27 -168 -119 -200
-201 -35 -90 -39 -225 -10 -338 l21 -87 -86 -99 c-251 -284 -422 -613 -505
-971 -12 -52 -25 -106 -29 -119 -6 -19 -53 73 -243 475 l-237 499 97 6 c243
16 455 123 602 306 134 167 268 507 301 766 10 71 9 119 0 212 -32 312 -80
452 -198 577 -73 75 -134 102 -223 96 -124 -9 -235 -92 -344 -257 -227 -341
-361 -739 -406 -1200 -6 -58 -11 -106 -13 -107 -1 -1 -65 131 -141 294 -676
1438 -1036 2102 -1306 2412 l-56 65 -23 130 c-13 72 -43 207 -67 300 -141 555
-314 891 -619 1201 -165 168 -255 212 -406 201 -106 -8 -167 -36 -228 -103
-65 -71 -92 -142 -98 -260 -6 -103 6 -186 42 -301 77 -237 318 -621 552 -875
206 -225 408 -366 601 -423 40 -12 70 -24 66 -27 -3 -4 24 -42 61 -85 181
-211 406 -601 773 -1341 186 -375 562 -1160 562 -1173 0 -4 -43 22 -96 57
-232 153 -490 256 -787 316 -88 18 -146 22 -272 23 -146 0 -165 -2 -220 -24
-77 -31 -155 -108 -178 -175 -33 -97 -18 -236 37 -347 58 -113 201 -283 301
-354 125 -89 354 -182 545 -220 112 -23 304 -16 405 14 144 43 293 128 413
236 29 26 54 46 56 44 2 -2 71 -148 154 -324 83 -176 184 -391 226 -479 42
-87 76 -160 76 -161 0 -2 -36 19 -81 46 -155 93 -364 156 -611 185 -350 40
-569 -30 -659 -211 -19 -41 -24 -65 -24 -131 0 -74 3 -87 40 -158 22 -43 57
-93 77 -112 109 -98 371 -174 600 -174 227 0 435 48 702 162 66 28 121 47 123
42 2 -5 155 -314 342 -687 186 -373 335 -675 332 -670 -4 4 -26 33 -49 64
-153 203 -510 389 -907 472 -241 51 -332 62 -505 61 -182 -1 -266 -17 -377
-71 -164 -80 -261 -244 -234 -396 16 -89 82 -217 137 -266 128 -112 462 -227
733 -252 233 -21 523 11 856 96 161 41 390 116 407 133 5 5 -3 34 -17 65 -13
31 -23 57 -21 57 2 0 41 -71 87 -157 391 -748 830 -1490 1186 -2005 451 -653
904 -1148 1282 -1402 85 -58 295 -175 312 -176 4 0 10 12 13 26 4 15 10 24 13
21 3 -4 33 -73 68 -154 34 -81 68 -160 76 -174 l14 -27 104 49 c58 27 107 52
109 54 3 3 -2 22 -11 42 -8 21 -45 110 -81 198 -145 346 -289 757 -426 1211
-522 1725 -800 3682 -800 5619 0 495 32 1337 52 1361 5 7 29 15 55 19 70 10
299 79 412 124 336 135 563 295 730 516 203 268 254 411 218 603 -21 109 -55
181 -111 235 -158 154 -400 139 -656 -41 -155 -109 -416 -404 -538 -609 -29
-48 -52 -81 -52 -74 0 25 52 462 81 681 42 321 121 815 131 825 3 3 38 -6 78
-20 116 -39 233 -58 365 -58 313 1 541 114 793 395 231 257 330 427 392 672
63 252 74 387 44 533 -39 191 -145 305 -296 320 -155 14 -314 -66 -573 -288
-235 -201 -475 -497 -629 -779 -26 -47 -44 -74 -41 -60 61 301 220 961 316
1316 l22 81 130 17 c355 49 722 162 959 298 253 143 547 441 603 608 13 40 16
78 14 169 -4 112 -6 122 -39 187 -41 80 -108 140 -197 175 -51 21 -75 24 -193
24 -158 0 -219 -15 -387 -96 -146 -70 -406 -249 -541 -373 -23 -21 -44 -37
-47 -34 -5 5 115 367 203 613 46 130 212 577 216 582 1 1 53 -20 116 -47 134
-57 315 -111 479 -142 160 -31 521 -33 651 -4 333 73 768 341 889 548 35 59
100 228 117 305 58 261 -68 503 -300 576 -99 31 -301 31 -427 -1 -316 -78
-719 -279 -974 -485 -157 -127 -339 -331 -429 -481 -20 -33 -36 -57 -36 -54 0
23 335 808 491 1151 53 115 55 118 94 128 281 71 626 247 880 449 307 244 653
668 755 923 110 277 66 500 -130 648 -139 105 -323 139 -575 107z m-3341
-12471 c4 -106 13 -287 21 -402 17 -249 17 -242 0 -185 -18 58 -66 115 -118
141 -61 31 -170 24 -257 -17 -105 -50 -263 -176 -441 -354 -222 -220 -383
-429 -542 -701 -63 -107 -207 -397 -207 -416 0 -53 -56 48 -320 578 -165 331
-300 604 -300 608 0 3 60 4 133 3 108 -3 149 0 219 17 225 53 376 166 528 397
87 131 160 278 191 386 18 63 26 77 38 72 9 -4 48 -18 86 -32 247 -88 617 -62
879 62 39 19 74 35 77 35 3 1 9 -86 13 -192z m81 -1142 c146 -1485 474 -3013
916 -4266 38 -108 69 -199 69 -203 0 -10 -160 101 -260 181 -124 98 -427 405
-571 578 -417 501 -856 1172 -1346 2055 -126 227 -331 608 -388 719 l-27 54
49 -35 c175 -128 397 -157 598 -79 138 53 260 149 431 338 180 200 267 332
349 533 96 233 134 373 136 503 l2 72 8 -95 c5 -52 20 -212 34 -355z"/>
<path d="M9781 13305 c-217 -61 -371 -272 -465 -638 -117 -451 -121 -809 -13
-1095 38 -101 87 -178 152 -242 l47 -45 90 95 c238 251 449 561 552 813 120
290 154 726 70 890 -9 18 -44 62 -76 99 -101 114 -230 158 -357 123z"/>
<path d="M7394 12135 c-144 -26 -285 -127 -335 -239 -29 -66 -35 -157 -15
-241 10 -38 19 -81 22 -95 23 -111 212 -271 484 -409 187 -96 341 -142 585
-177 147 -21 554 -24 720 -6 99 12 297 42 302 46 6 5 -38 167 -57 211 -80 186
-290 402 -550 565 -185 116 -556 276 -742 320 -170 40 -293 47 -414 25z"/>
<path d="M13991 10875 c-134 -38 -271 -141 -415 -314 -307 -368 -463 -815
-402 -1155 21 -114 9 -109 184 -70 318 71 606 217 787 399 164 163 317 447
340 631 8 66 -26 237 -63 313 -77 157 -265 242 -431 196z"/>
</g>
</svg>
